<?xml version="1.0" standalone="no"?>
<!-- <?xml-stylesheet type="text/css" href="http://www.w3.org/Consortium/Offices/Presentations/svgs/slide.css" ?> -->
<?xml-stylesheet type="text/css" href="http://www.w3c.it/talks/svgs/slide.css" ?> 
<!-- Generator: Mayura Draw 3.6 -->
<!DOCTYPE svg PUBLIC "-//W3C//DTD SVG 20000303 Stylable//EN"
  "http://www.w3.org/TR/2000/CR-SVG-20001102/DTD/svg-20001102.dtd" [
	<!ENTITY st0 "stroke:#000000;stroke-width:1;fill:#ccff99">
	<!ENTITY st1 "stroke:none;fill:#ccff99">
	<!ENTITY st2 "stroke:#000000;stroke-width:1;fill:none">
	<!ENTITY st3 "stroke:none;fill:none">
	<!ENTITY st4 "stroke:blue;stroke-width:2;fill:none">
	<!ENTITY stt0 "fill:#eb5945; font-family:Arial; font-size:24; text-anchor:middle">
	<!ENTITY stt1 "fill:#eb5945; font-family:Arial; font-size:24; text-anchor:start">
	<!ENTITY stt2 "fill:#eb5945; font-family:Arial; font-size:28; text-anchor:start">
]>


<svg xml:space="preserve" width="780" height="409" viewBox="0 0 780 409">
<desc>AllTogether.pdx</desc>




<rect class="background" width="780" height="409"/>
<ellipse style="&st0;" transform="matrix(0 1 1 0 81.3 21.98)" cx="69.364" cy="298.686" rx="7.774" ry="52.477"/>
<rect style="&st1;" transform="matrix(0 1 1 0 82.9 -52.23)" x="69.364" y="244.63" width="74.213" height="106.28"/>
<ellipse style="&st0;" transform="matrix(0 1 1 0 81.3 -51.32)" cx="69.364" cy="298.686" rx="7.774" ry="52.477"/>
<path style="&st2;"
d="M327.305 18.036
l0 74.213
"/>
<path style="&st2;"
d="M433.145 18.536
l0 74.213
"/>
<text transform="matrix(1 0 0 1 380.5 50.01)" style="&stt0;"><tspan x="0" y="0">Appl.</tspan><tspan x="0" y="26">Database</tspan></text>
<path style="&st3;"
d="M379.19 96.839
l2.748 0
"/>
<rect style="&st0;" transform="matrix(0 1 1 0 -17.55 -61.4)" x="194.885" y="284.943" width="32.067" height="226.304"/>
<text transform="matrix(1 0 0 1 380.5 157.8)" style="&stt0;"><tspan x="0" y="0">XML, Images, ...</tspan></text>
<ellipse style="&st0;" transform="matrix(0 1 1 0 58.96 -29.33)" cx="269.098" cy="321.591" rx="37.576" ry="95.883"/>
<text transform="matrix(1 0 0 1 381.5 239.7)" style="&stt0;"><tspan x="0" y="0">Transformation</tspan><tspan x="0" y="26">Process</tspan></text>
<rect style="&st0;" transform="matrix(0 1 1 0 -227.8 9.84)" x="331.4" y="238.216" width="57.95" height="90.705"/>
<text transform="matrix(1 0 0 1 15.08 378.5)" style="&stt1;"><tspan x="0" y="0">XHTML</tspan></text>
<rect style="&st0;" transform="matrix(0 1 1 0 415.4 9.38)" x="331.4" y="244.63" width="58.866" height="90.705"/>
<text transform="matrix(1 0 0 1 705.3 378.5)" style="&stt0;"><tspan x="0" y="0">. . .</tspan></text>
<text transform="matrix(1 0 0 1 550.7 379.9)" style="&stt2;"><tspan x="0" y="0">. . .</tspan></text>
<rect style="&st0;" transform="matrix(0 1 1 0 -97.21 8.98)" x="331.4" y="238.216" width="59.668" height="89.331"/>
<text transform="matrix(1 0 0 1 185.7 365.5)" style="&stt0;"><tspan x="0" y="0">XHTML</tspan><tspan x="0" y="26">Basic</tspan></text>
<rect style="&st0;" transform="matrix(0 1 1 0 31.33 8.98)" x="331.4" y="238.216" width="59.668" height="92.079"/>
<text transform="matrix(1 0 0 1 315.6 378.5)" style="&stt0;"><tspan x="0" y="0">WML</tspan></text>
<rect style="&st0;" transform="matrix(0 1 1 0 148.1 8.78)" x="331.4" y="238.216" width="60.069" height="118.42"/>
<text transform="matrix(1 0 0 1 390.8 378.5)" style="&stt1;"><tspan x="30" y="0">SVG</tspan></text>

<path class="arrowLine"
d="M380.547 103.253
l0 21.989
"/>
<path class="arrow"
d="M380.547 125.242
l-1 0
-5 -18
12 0
-5 18
z"/>
<path class="arrowLine"
d="M380.547 169.22
l0 26.57
"/>
<path class="arrow"
d="M380.547 195.79
l-1 0
-5 -18
12 0
-5 18
z"/>
<path class="arrowLine"
d="M380.547 281.913
l-325.254 54.973
"/>
<path class="arrow"
d="M55.293 336.886
l-0.167 -0.986
16.915 -7.93
2 11.832
-18.582 -1.93
z"/>
<path class="arrowLine"
d="M378.715 281.913
l-183.242 51.308
"/>
<path class="arrow"
d="M195.473 333.221
l-0.27 -0.963
15.985 -9.668
3.236 11.556
-18.681 0.039
z"/>
<path class="arrowLine"
d="M378.715 282.83
l-61.386 51.307
"/>
<path class="arrow"
d="M317.329 334.137
l-0.641 -0.767
10.605 -15.38
7.696 9.207
-17.018 7.707
z"/>
<path class="arrowLine"
d="M380.547 282.83
l62.303 53.14
"/>
<path class="arrow"
d="M442.85 335.97
l-0.649 0.761
-16.94 -7.877
7.787 -9.13
10.45 15.485
z"/>
<path class="arrowLine"
d="M379.631 282.83
l328.003 52.224
"/>
<path class="arrow"
d="M707.634 335.054
l-0.157 0.988
-18.562 2.108
1.887 -11.851
16.99 7.768
z"/>
<text transform="matrix(1 0 0 1 464.8 278)" style="&stt1;"><tspan x="0" y="0">(Schemas, XSLT, RDF,...)</tspan></text>
</svg>
