<?xml version="1.0" standalone="no"?>
<!-- <?xml-stylesheet type="text/css" href="http://www.w3.org/Consortium/Offices/Presentations/svgs/slide.css" ?> -->
<?xml-stylesheet type="text/css" href="http://www.w3c.it/talks/svgs/slide.css" ?>
<!DOCTYPE svg PUBLIC "-//W3C//DTD SVG 20001102//EN"
  "http://www.w3.org/TR/2000/CR-SVG-20001102/DTD/svg-20001102.dtd">
<svg width="900" height="500">

<rect style="fill:white; stroke:none" width="900" height="500"/>

<g transform="translate(0,-50)">

<g transform="translate(100,130)" style="opacity:1">
 
<image transform="translate(45,50)"   id="image1" xlink:href="http://www.w3c.it/talks/gifs/arch.gif" width="212" height="48" />
<image transform="translate(45,250)"  id="image2" xlink:href="http://www.w3c.it/talks/gifs/ui.gif" width="212" height="48" />
<image transform="translate(345,50)"  id="image3" xlink:href="http://www.w3c.it/talks/gifs/tands.gif" width="212" height="48" />
<image transform="translate(345,250)" id="image4" xlink:href="http://www.w3c.it/talks/gifs/wai.gif" width="212" height="48" />

<!-- Starting 8 secs into the animation change the group opacity from the current value of 1 to 0 over 2 seconds -->
<animate id="opaciteimg2" attributeName="opacity" attributeType="CSS" to="0" begin="8s" dur="2s" fill="freeze" />

</g>


<!-- Blurs the resulting image but difficult to see any effect! -->
<feGaussianBlur id="blur" in="mask" stdDeviation="7" result="blur"/>  
<g id="Layer_1"  transform="translate(400,300)"  >
  <g id="Layer_2" transform="translate(128,20.5)"  >
    <g id="Layer_3" style="fill-rule:nonzero" >
      <g id="Layer_4" transform="translate(-128,-20.5)"  style="opacity:1">

<clipPath  id="clip1">
 <path  style="fill:none" d="M0,41V0h256v41H0z"/>
</clipPath>

<!-- blue rectangle  -->
<g style="clip-path:url(#clip1);" in="blur">
<path style="fill:#0C469C" d="M84.196,22.843h171.5V37.26h-171.5V22.843z"/>

<!--   c   -->

<path style="fill:#FFFFFF" d="M94.038,32.373c-0.629,0.896-1.343,1.902-2.826,1.902c-0.924,0-2.085-0.602-2.085-2.154c0-2.141,2.015-4.491,3.946-4.491c1.105,0,1.609,0.615,1.609,1.23c0,0.63-0.35,1.008-0.881,1.008c-0.378,0-0.797-0.252-0.797-0.728
					c0-0.392,0.294-0.615,0.294-0.812c0-0.182-0.196-0.238-0.322-0.238c-1.217,0-2.057,2.938-2.057,3.933c0,1.119,0.616,1.356,1.021,1.356c0.629,0,1.147-0.447,1.707-1.259l0.392,0.252z"/>


<!--   o   -->


<path style="fill:#FFFFFF;" d="M112.081,29.784c0,2.085-1.735,4.491-3.974,4.491c-1.147,0-2.239-0.741-2.239-2.084c0-2.155,1.805-4.562,4.016-4.562c0.531,0,2.197,0.279,2.197,2.154z M107.533,32.89c0,0.28,0,0.979,0.728,0.979c1.344,0,2.155-3.89,2.155-4.939
					c0-0.699-0.308-0.896-0.671-0.896c-1.511,0-2.211,3.96-2.211,4.855z"/>

<!--   n   -->


<path style="fill:#FFFFFF;" d="M130.309,32.386c-0.448,0.756-1.105,1.833-2.197,1.833c-0.224,0-0.979,0-0.979-0.909c0-0.993,1.231-4.058,1.231-4.366c0-0.168-0.168-0.308-0.35-0.308c-0.35,0-1.763,0.7-2.994,5.457h-1.693c0.714-2.672,1.427-4.981,1.427-5.331
					c0-0.363-0.377-0.363-0.755-0.363v-0.378c0.308,0,1.693-0.126,2.798-0.378l-0.839,2.603l0.042,0.028c1.007-1.483,1.763-2.645,2.98-2.645c0.336,0,1.064,0.027,1.064,1.105c0,0.909-1.218,3.875-1.218,4.281c0,0.126,0.056,0.252,0.21,0.252
					c0.28,0,0.602-0.504,0.966-1.063l0.308,0.182z"/>

<!--   s   -->

<path style="fill:#FFFFFF;" d="M146.03,29.784l-0.378-0.028c-0.111-0.699-0.405-1.665-1.23-1.665c-0.742,0-0.742,0.686-0.742,0.756c0,0.882,1.917,2.113,1.917,3.554c0,1.357-1.203,1.875-2.099,1.875c-0.615,0-0.966-0.279-1.287-0.279c-0.057,0-0.336,0.042-0.406,0.279
					h-0.378l0.309-2.322l0.377,0.042c0.21,1.861,1.218,1.861,1.344,1.861c0.531,0,0.798-0.42,0.798-0.77c0-0.364-0.336-0.924-0.784-1.441c-0.728-0.84-1.119-1.413-1.119-2.267c0-1.246,0.966-1.749,1.875-1.749c0.699,0,0.867,0.308,1.329,0.308
					c0.21,0,0.252-0.057,0.392-0.294h0.406l-0.322,2.141z"/>

<!--   o   -->

<path style="fill:#FFFFFF;" d="M163.809,29.784c0,2.085-1.735,4.491-3.974,4.491c-1.147,0-2.239-0.741-2.239-2.084c0-2.155,1.805-4.562,4.016-4.562c0.532,0,2.197,0.279,2.197,2.154z M159.261,32.89c0,0.28,0,0.979,0.728,0.979c1.344,0,2.155-3.89,2.155-4.939
					c0-0.699-0.308-0.896-0.672-0.896c-1.511,0-2.211,3.96-2.211,4.855z"/>

<!--   r   -->

<path style="fill:#FFFFFF;" d="M175.516,28.021c1.427-0.126,1.861-0.154,2.799-0.392l-0.784,2.49l0.07,0.028c0.42-0.84,1.245-2.519,2.169-2.519c0.056,0,0.812,0,0.812,0.923c0,0.644-0.392,1.021-0.826,1.021c-0.489,0-0.644-0.531-0.839-0.531
					c-0.392,0-1.12,1.399-1.428,2.141c-0.363,0.938-0.504,1.609-0.951,2.91h-1.693c0.742-2.519,1.428-4.869,1.428-5.317c0-0.35-0.252-0.363-0.756-0.377v-0.378z"/>


<!--   t   -->

<path style="fill:#FFFFFF;" d="M195.015,28.399h-1.161c-0.462,1.707-1.218,4.155-1.218,4.631c0,0.168,0.196,0.21,0.21,0.21c0.35,0,0.896-0.825,1.077-1.119l0.308,0.196c-0.518,0.812-1.203,1.902-2.294,1.902c-1.008,0-1.008-0.84-1.008-0.938
					c0-0.573,0.672-2.673,1.287-4.883h-0.714v-0.49c0.546-0.21,1.609-0.644,2.561-2.127h0.49l-0.546,2.029h1.008v0.588z"/>


<!--   i   -->

<path style="fill:#FFFFFF;" d="M208.803,32.317c-0.714,1.091-1.302,1.902-2.337,1.902c-0.812,0-0.966-0.602-0.966-0.938c0-0.615,1.092-4.113,1.092-4.436c0-0.447-0.42-0.462-0.826-0.447v-0.378c0.561-0.042,1.875-0.168,2.827-0.392c-0.546,2.001-1.399,4.953-1.399,5.4
					c0,0.141,0.126,0.21,0.21,0.21c0.336,0,0.812-0.699,1.091-1.119l0.309,0.196z M208.187,24.523c0.532,0,0.966,0.434,0.966,0.951c0,0.504-0.42,0.924-0.966,0.924c-0.657,0-0.923-0.588-0.923-0.952c0-0.336,0.294-0.923,0.923-0.923z"/>


<!--   u   -->

<path style="fill:#FFFFFF;" d="M226.746,32.415c-0.266,0.476-1.05,1.805-2.225,1.805c-0.21,0-0.938,0-0.938-0.783c0-0.602,0.168-1.077,0.308-1.497l-0.028-0.015c-1.063,1.483-1.65,2.295-2.714,2.295c-1.078,0-1.078-0.77-1.078-1.091c0-0.966,1.05-3.513,1.05-4.324
					c0-0.363-0.308-0.378-0.783-0.405v-0.378c1.245-0.057,2.729-0.378,2.924-0.392l-1.315,4.31c-0.167,0.531-0.209,0.686-0.209,0.938c0,0.266,0.14,0.336,0.321,0.336c0.56,0,1.413-1.33,1.596-1.666c0.629-1.133,0.951-2.238,1.385-3.735h1.651
					c-0.28,0.979-1.441,4.743-1.441,5.191c0,0.237,0.14,0.266,0.21,0.266c0.336,0,0.867-0.84,0.993-1.035l0.294,0.182z"/>



<!--   m   -->

<path style="fill:#FFFFFF;" d="M238.62,28.021c1.483-0.126,1.833-0.154,2.799-0.378l-0.84,2.603l0.042,0.028c0.812-1.246,1.722-2.645,2.967-2.645c0.069,0,0.923,0,0.923,0.938c0,0.545-0.195,1.021-0.321,1.343l0.014,0.028c0.714-1.134,1.539-2.309,2.687-2.309
					c0.77,0,1.105,0.489,1.105,1.105c0,0.923-1.245,3.777-1.245,4.323c0,0.168,0.153,0.21,0.237,0.21c0.267,0,0.714-0.7,0.952-1.063l0.308,0.182c-0.434,0.742-1.077,1.833-2.197,1.833c-0.237,0-0.979,0-0.979-0.909c0-1.021,1.23-4.002,1.23-4.338
					c0-0.168-0.111-0.321-0.335-0.321c-0.588,0-1.33,1.217-1.554,1.623c-0.518,0.896-0.714,1.524-1.413,3.819h-1.679c1.077-3.484,1.539-4.715,1.539-5.107c0-0.266-0.168-0.335-0.267-0.335c-0.098,0-1.65,0.35-2.952,5.442h-1.692c0.797-2.924,1.427-4.869,1.427-5.331

c0-0.405-0.546-0.378-0.756-0.363v-0.378z"/>


<!-- First W  -->

<path d="M100.594,7.917h2.112l-4.8,16.201h-0.216l-3-10.033l-3,10.033h-0.192l-4.8-16.201h2.112l2.88,9.865l1.968-6.648l-0.96-3.216h2.112l2.88,9.865l2.904-9.865z"/>

<!-- O of WORLD  -->

<path d="M107.764,9.253c2.893,0,4.48,2.97,4.48,6.605c0,3.636-1.587,6.606-4.48,6.606c-2.868,0-4.481-2.97-4.481-6.606c0-3.636,1.613-6.605,4.481-6.605z M107.764,20.34c1.229,0,2.228-2.022,2.228-4.481c0-2.458-0.999-4.48-2.228-4.48
					c-1.204,0-2.228,2.022-2.228,4.48c0,2.458,1.024,4.481,2.228,4.481z"/>

<!-- R of WORLD  -->

<path d="M125.046,22.26h-2.612l-3.072-4.276c-0.512,0-1.562,0-1.562,0v4.276h-2.151V9.458h4.071c2.33,0,4.25,1.92,4.25,4.276c0,1.639-0.922,3.073-2.305,3.79l3.38,4.737z M121.845,13.734c0-1.178-0.947-2.151-2.125-2.151c-0.23,0-1.92,0-1.92,0v4.276h1.92

c1.178,0,2.125-0.973,2.125-2.125z"/>


<!-- L of WORLD  -->

<path d="M129.961,20.135h4.25v2.125h-6.401V9.458h2.151v10.677z"/>


<!-- D of WORLD  -->

<path d="M135.701,9.458h2.996c3.175,0,5.761,2.868,5.761,6.401c0,3.534-2.586,6.401-5.761,6.401c-0.282,0-2.996,0-2.996,0V9.458z M137.853,20.135h0.845c1.869,0,3.405-1.92,3.405-4.276c0-2.355-1.536-4.276-3.405-4.276c-0.333,0-0.845,0-0.845,0v8.552z"/>

<!-- Second W -->


<path d="M170.594,7.584h2.112l-4.801,16.202h-0.216l-3-10.033l-3.001,10.033h-0.191l-4.801-16.202h2.112l2.88,9.865l1.969-6.648l-0.96-3.216h2.111l2.881,9.865l2.904-9.865z"/>


<!-- I of WIDE  -->

<path d="M175.384,9.406h1.875v12.813h-1.875V9.406z"/>


<!-- D of WIDE  -->

<path d="M181.488,9.458h2.996c3.175,0,5.761,2.868,5.761,6.401c0,3.534-2.586,6.401-5.761,6.401c-0.282,0-2.996,0-2.996,0V9.458z M183.639,20.135h0.846c1.869,0,3.405-1.92,3.405-4.276c0-2.355-1.536-4.276-3.405-4.276c-0.333,0-0.846,0-0.846,0v8.552z"/>

<!--E of WIDE  -->


<path d="M193.649,9.458h6.4v2.125h-4.25v2.561h4.25v2.151h-4.25v3.841h4.25v2.125h-6.4V9.458z"/>

<!-- Third W -->


<path d="M228.261,7.584h2.111l-4.8,16.202h-0.216l-3.001-10.033l-3,10.033h-0.192l-4.8-16.202h2.112l2.88,9.865l1.968-6.648l-0.96-3.216h2.112l2.881,9.865l2.904-9.865z"/>

<!-- E of WEB  -->

<path d="M231.821,9.458h6.401v2.125h-4.25v2.561h4.25v2.151h-4.25v3.841h4.25v2.125h-6.401V9.458z"/>

<!-- B of WEB  -->


<path d="M241.845,9.458h4.48c1.895,0,3.432,1.536,3.432,3.405c0,0.871-0.282,1.536-0.743,2.125c0.974,0.742,1.588,1.818,1.588,3.226c0,2.228-1.818,4.045-4.046,4.045c-0.23,0-4.711,0-4.711,0V9.458z M243.995,14.144h2.33c0.717,0,1.28-0.563,1.28-1.28
					c0-0.691-0.563-1.28-1.28-1.28c-0.179,0-2.33,0-2.33,0v2.561z M243.995,20.135h2.561c1.05,0,1.921-0.871,1.921-1.92c0-1.076-0.871-1.92-1.921-1.92c-0.409,0-2.561,0-2.561,0v3.841z"/>






<!-- Defined C then 3 then W as they overlap -->

<!-- top of Initial C  -->

<path d="M74.5,0.203l0.832,5.056l-2.944,5.632c0,0-1.13-2.39-3.008-3.712c-1.582-1.114-2.612-1.356-4.224-1.024c-2.069,0.427-4.416,2.901-5.44,5.952c-1.226,3.65-1.237,5.417-1.28,7.04c-0.068,2.602,0.341,4.139,0.341,4.139s-1.787-3.307-1.771-8.15
					c0.012-3.457,0.555-6.592,2.155-9.686c1.407-2.72,3.499-4.352,5.355-4.544c1.919-0.199,3.436,0.727,4.608,1.728c1.23,1.051,2.475,3.35,2.475,3.35L74.5,0.203z"/>

<!-- Bottom of Initial C  -->

<path d="M74.863,28.812c0,0-1.302,2.325-2.112,3.221c-0.811,0.896-2.261,2.475-4.053,3.265c-1.792,0.789-2.731,0.938-4.501,0.768c-1.769-0.17-3.413-1.194-3.989-1.621s-2.048-1.686-2.88-2.858c-0.832-1.174-2.133-3.521-2.133-3.521s0.726,2.352,1.179,3.35
					c0.261,0.574,1.064,2.331,2.203,3.861c1.062,1.426,3.125,3.883,6.261,4.438c3.136,0.555,5.291-0.854,5.824-1.195c0.534-0.341,1.657-1.281,2.368-2.042c0.743-0.795,1.445-1.809,1.835-2.416c0.284-0.444,0.747-1.345,0.747-1.345l-0.747-3.903z"/>

<!-- Initial W  -->

<path style="fill:#0C479D" d="M20.712,0.427l7.09,24.105l7.09-24.105h5.134L28.292,40.031h-0.489l-7.334-24.544l-7.334,24.544h-0.489L0.911,0.427h5.133l7.09,24.105l4.792-16.232l-2.347-7.873h5.133z"/>

<!-- Initial 3  -->

<path style="fill:#0C479D" d="M54.604,27.319c0,3.586-0.954,6.602-2.86,9.046c-1.907,2.444-4.376,3.666-7.408,3.666c-2.282,0-4.271-0.725-5.966-2.176c-1.694-1.45-2.95-3.413-3.765-5.892l4.009-1.661c0.587,1.499,1.362,2.681,2.323,3.544
					c0.961,0.864,2.094,1.296,3.398,1.296c1.369,0,2.526-0.766,3.472-2.298c0.945-1.531,1.418-3.373,1.418-5.525c0-2.38-0.506-4.222-1.516-5.525c-1.174-1.531-3.016-2.298-5.525-2.298h-1.956v-2.347l6.845-11.833h-8.263l-2.298,3.912h-1.466V0.427h19.069v2.396
					l-7.237,12.468c2.542,0.815,4.466,2.299,5.769,4.45c1.304,2.151,1.957,4.677,1.957,7.578z"/>



</g>

</g>
<!-- Layer_4 -->
	
<animateTransform attributeName="transform" attributeType="XML" type="rotate" from="360" to="0" begin="0s" dur="5s" fill="freeze" />

<!--animate id="opacite2" attributeName="opacity" attributeType="CSS" to="0" begin="4.5s" dur="2s"  /-->


</g>
<!-- Layer_3 -->


<animateTransform attributeName="transform" attributeType="XML" type="scale" from="5" to=".1"  begin="0s" dur="5s" fill="freeze" />


<animateTransform attributeName="transform" attributeType="XML" type="scale" from=".1" to="2"  begin="5s" dur="4s" fill="freeze" />

</g>
<!-- Layer_2 -->

</g>
<!-- Layer_1 -->
</g>
</svg>
