<?xml version="1.0" standalone="no"?>
<!DOCTYPE svg PUBLIC "-//W3C//DTD SVG 20001102//EN"
  "http://www.w3.org/TR/2000/CR-SVG-20001102/DTD/svg-20001102.dtd">
<svg width="500" height="300" >
  <!-- <rect width="500" height="300" class="background" /> -->

<clipPath  id="myClip">
<path d="M  0.0  112 L  20  124 L  40  129 L  60  126 L  80  120 L  100  111 L  120  104 L  140  101 L  164  106 L  170  103 L  173  80 L  178  60 L  185  39 L  200  30 L  220  30 L  240  40 L  260  61 L  280  69 L  290  68 L  288  77 L  272  85 L  250  85 L  230  85 L  215  88 L  211  95 L  215  110 L  228  120 L  241  130 L  251  149 L  252  164 L  242  181 L  221  189 L  200  191 L  180  193 L  160  192 L  140  190 L  120  190 L  100  188 L  80  182 L  61  179 L  42  171 L  30  159 L  13  140 L  00  112 Z"/>
</clipPath>
 
<g id="grid" style="stroke:none;clip-path:url(#myClip)">
    <rect style="fill:red" x="0" y="0"    width="500" height="20" />
    <rect style="fill:yellow"  x="0" y="20"   width="500" height="20" />
    <rect style="fill:blue" x="0" y="40"   width="500" height="20" />
    <rect style="fill:red" x="0" y="60"   width="500" height="20" />
    <rect style="fill:yellow" x="0" y="80"   width="500" height="20" />
    <rect style="fill:blue" x="0" y="100"  width="500" height="20" />
    <rect style="fill:red" x="0" y="120"  width="500" height="20" />
    <rect style="fill:yellow" x="0" y="140"  width="500" height="20" />
    <rect style="fill:blue" x="0" y="160"  width="500" height="20" />
    <rect style="fill:red" x="0" y="180"  width="500" height="20" />
    <rect style="fill:yellow" x="0" y="200"  width="500" height="20" />
    <rect style="fill:blue" x="0" y="220"   width="500" height="20" />
    <rect style="fill:red" x="0" y="240"    width="500" height="20" />
    <rect style="fill:yellow"  x="0" y="260"   width="500" height="20" />
</g>
</svg>



