<!-- <?xml-stylesheet type="text/css" href="http://www.w3.org/Consortium/Offices/Presentations/svgs/slide.css" ?> -->
<?xml-stylesheet type="text/css" href="http://www.w3c.it/talks/svgs/slide.css" ?>
<svg  width="922" height="480">




  <rect width="922" height="480" class="background" />

<g transform="scale(0.9) translate(0,-120)">


<g transform="translate(50,100)">


<g transform="scale(1.0)">



<g transform="translate(0,500)">
<rect style="fill:sienna" width="480" height="40"/>
<text  style="color:gold" class="rec" x="240" y="30">Universal Resource Identifiers</text>
</g>


<g transform="translate(520,500)">
<rect style="fill:sienna" width="280" height="40"/>
<text style="color:gold;font-style:italic" class="rec" x="140" y="30">(Unicode)</text>
</g>

<g transform="translate(0,450)">
<rect style="fill:peru" width="800" height="40"/>
<text style="color:lemonchiffon" class="rec" x="400" y="30">XML: Structure Documents</text>
</g>

<g transform="translate(0,400)">
<rect style="fill:red" width="390" height="40"/>
<text x="195" y="30">Namespaces</text>
</g>

<g transform="translate(400,400)">
<rect style="fill:red" width="400" height="40"/>
<text class="rec" x="200" y="30">XML-Schema</text>
</g>

<g transform="translate(40,350)">
<rect style="fill:gold" width="620" height="40"/>
<text class="rec" x="310" y="30">Resource Description Framework Model</text>
</g>

<g transform="translate(40,300)">
<rect style="fill:gold" width="620" height="40"/>
<text class="rec" x="310" y="30">RDF Syntax in XML</text>
</g>

<g transform="translate(240,250)">
<rect style="fill:gold" width="420" height="40"/>
<text class="rec" x="210" y="30">RDF Schema</text>
</g>

<g transform="translate(60,210)">
<rect style="fill:aqua" width="80" height="80"/>
<text style="font-style:italic" class="rec" x="40" y="50">Moz</text>
</g>

<g transform="translate(150,210)">
<rect style="fill:yellowgreen" width="80" height="80"/>
<text class="rec" x="40" y="50">P3P</text>
</g>

<g transform="translate(400,200)">
<rect style="fill:yellow" width="260" height="40"/>
<text class="rec" x="110" y="30">Ontology Support</text>
</g>

<g transform="translate(260,80)">
<rect style="fill:aqua" width="100" height="140"/>
<text class="rec" x="50" y="30">Dublin</text>
<text class="rec" x="50" y="60">Core</text>
<text class="rec" x="50" y="90">Element</text>
<text class="rec" x="50" y="120">Set</text>
</g>
<g transform="translate(250,90)">
<rect style="fill:aqua" width="100" height="140"/>
<text style="font-style:italic" class="rec" x="50" y="30">Dublin</text>
<text class="rec" x="50" y="60">Core</text>
<text class="rec" x="50" y="90">Element</text>
<text class="rec" x="50" y="120">Set</text>
</g>
<g transform="translate(240,100)">
<rect style="fill:aqua" width="100" height="140"/>
<text style="font-style:italic" class="rec" x="50" y="30">Dublin</text>
<text style="font-style:italic" class="rec" x="50" y="60">Core</text>
<text class="rec" x="50" y="90">Element</text>
<text class="rec" x="50" y="120">Set</text>
</g>



<g transform="translate(500,150)">
<rect style="fill:yellow" width="160" height="40"/>
<text class="rec" x="80" y="30">Logic</text>
</g>

<g transform="translate(600,100)">
<rect style="fill:yellow" width="200" height="40"/>
<text class="rec" x="100" y="30">Proof</text>
</g>
<g transform="translate(680,150)">
<rect style="fill:gold" width="120" height="240"/>
<text class="rec" x="60" y="100">XML</text>
<text class="rec" x="60" y="130">Digital</text>
<text class="rec" x="60" y="160">Signatures</text>
</g>


<g transform="translate(510,50)">
<rect style="fill:yellowgreen" width="80" height="90"/>
<text class="rec" x="40" y="30">KR</text>
<text class="rec" x="40" y="60">rules</text>
</g>






<g transform="translate(620,50)">
<path style="fill:violet;stroke:black" d="M0,0L0,40L180,40,L180,0C150,-30,30,-30,0,0z" />
<text class="rec" style="font-size:28" x="90" y="30">Web of Trust</text>
</g>


<g transform="translate(430,60)">
<rect style="fill:yellowgreen" width="60" height="110"/>
</g>
<g transform="translate(420,70)">
<rect style="fill:yellowgreen" width="60" height="110"/>
</g>
<g transform="translate(410,80)">
<rect style="fill:yellowgreen" width="60" height="110"/>
<text class="rec" x="30" y="30">KR</text>
<text class="rec" x="30" y="60">Data</text>
</g>

</g>
</g>
</g>

</svg>
 
 




