<?xml version="1.0" encoding="iso-8859-1"?>
<!-- Generator: Adobe Illustrator 9.0, SVG Export Plug-In  -->
<!DOCTYPE svg PUBLIC "-//W3C//DTD SVG 20000303 Stylable//EN"   "http://www.w3.org/TR/2000/03/WD-SVG-20000303/DTD/svg-20000303-stylable.dtd" [
	<!ENTITY st0 "fill-rule:evenodd;clip-rule:evenodd;">
	<!ENTITY st1 "fill:#FFFFFF;">
	<!ENTITY st2 "fill-rule:nonzero;clip-rule:nonzero;stroke:#000000;stroke-miterlimit:4;">
	<!ENTITY st3 "stroke:none;">
	<!ENTITY st4 "fill:#0C479D;">
]>
<svg  width="100%" height="100%" viewBox="0 0 277.299 50.576" xml:space="preserve">
	<g id="Layer_x0020_1" style="&st2;">
		<g style="&st3;">
			<g>
				<g>
					<path style="&st4;" d="M107.669,15.986h163.338v13.73H107.669v-13.73z"/>
					<path style="&st4;" d="M189.339,22.851"/>
				</g>
				<path style="&st1;" d="M117.042,25.062c-0.6,0.853-1.279,1.812-2.692,1.812c-0.879,0-1.985-0.574-1.985-2.052c0-2.039,1.919-4.277,3.758-4.277c1.053,0,1.532,0.586,1.532,1.172c0,0.6-0.333,0.96-0.839,0.96c-0.36,0-0.759-0.239-0.759-0.693
					c0-0.372,0.28-0.586,0.28-0.772c0-0.174-0.187-0.227-0.307-0.227c-1.16,0-1.959,2.799-1.959,3.745c0,1.065,0.587,1.293,0.973,1.293c0.6,0,1.093-0.428,1.626-1.201l0.373,0.24z"/>
				<path style="&st1;" d="M134.227,22.596c0,1.985-1.652,4.278-3.784,4.278c-1.093,0-2.132-0.705-2.132-1.986c0-2.053,1.719-4.344,3.825-4.344c0.506,0,2.092,0.266,2.092,2.052z M129.896,25.554c0,0.268,0,0.934,0.693,0.934c1.279,0,2.052-3.705,2.052-4.705
					c0-0.666-0.293-0.852-0.64-0.852c-1.439,0-2.105,3.771-2.105,4.623z"/>
				<path style="&st1;" d="M151.587,25.076c-0.426,0.718-1.053,1.746-2.092,1.746c-0.213,0-0.934,0-0.934-0.867c0-0.946,1.174-3.864,1.174-4.157c0-0.161-0.16-0.294-0.334-0.294c-0.333,0-1.679,0.666-2.852,5.197h-1.612c0.679-2.544,1.359-4.744,1.359-5.077
					c0-0.347-0.36-0.347-0.72-0.347v-0.36c0.293,0,1.612-0.119,2.665-0.359l-0.8,2.479l0.04,0.027c0.96-1.412,1.679-2.519,2.839-2.519c0.32,0,1.013,0.025,1.013,1.052c0,0.866-1.159,3.692-1.159,4.079c0,0.119,0.053,0.24,0.199,0.24c0.268,0,0.574-0.48,0.92-1.013
					l0.293,0.174z"/>
				<path style="&st1;" d="M166.562,22.596l-0.36-0.026c-0.106-0.666-0.387-1.586-1.173-1.586c-0.706,0-0.706,0.652-0.706,0.72c0,0.839,1.825,2.013,1.825,3.385c0,1.292-1.146,1.786-1.998,1.786c-0.587,0-0.92-0.266-1.227-0.266c-0.053,0-0.32,0.039-0.387,0.266
					h-0.359l0.293-2.211l0.36,0.039c0.199,1.772,1.159,1.772,1.278,1.772c0.507,0,0.76-0.398,0.76-0.732c0-0.346-0.319-0.879-0.746-1.373c-0.693-0.799-1.066-1.346-1.066-2.158c0-1.187,0.92-1.666,1.786-1.666c0.666,0,0.826,0.293,1.267,0.293
					c0.199,0,0.239-0.054,0.373-0.28h0.386l-0.306,2.039z"/>
				<path style="&st1;" d="M183.493,22.596c0,1.985-1.653,4.278-3.785,4.278c-1.093,0-2.132-0.705-2.132-1.986c0-2.053,1.719-4.344,3.824-4.344c0.507,0,2.093,0.266,2.093,2.052z M179.161,25.554c0,0.268,0,0.934,0.694,0.934c1.278,0,2.052-3.705,2.052-4.705
					c0-0.666-0.293-0.852-0.64-0.852c-1.439,0-2.106,3.771-2.106,4.623z"/>
				<path style="&st1;" d="M194.643,20.917c1.359-0.119,1.772-0.146,2.665-0.372l-0.746,2.372l0.066,0.026c0.4-0.8,1.188-2.398,2.066-2.398c0.053,0,0.772,0,0.772,0.879c0,0.613-0.373,0.973-0.786,0.973c-0.466,0-0.613-0.506-0.8-0.506
					c-0.373,0-1.065,1.333-1.359,2.039c-0.347,0.893-0.479,1.532-0.906,2.771h-1.612c0.707-2.398,1.359-4.636,1.359-5.064c0-0.333-0.24-0.346-0.72-0.359v-0.36z"/>
				<path style="&st1;" d="M213.214,21.277h-1.105c-0.44,1.626-1.16,3.958-1.16,4.412c0,0.16,0.187,0.199,0.2,0.199c0.333,0,0.853-0.786,1.026-1.066l0.293,0.187c-0.494,0.774-1.146,1.813-2.187,1.813c-0.959,0-0.959-0.799-0.959-0.893
					c0-0.547,0.64-2.546,1.227-4.652h-0.681V20.81c0.521-0.199,1.533-0.612,2.439-2.024h0.467l-0.52,1.932h0.959v0.56z"/>
				<path style="&st1;" d="M226.346,25.008c-0.68,1.04-1.239,1.813-2.226,1.813c-0.773,0-0.92-0.574-0.92-0.893c0-0.586,1.04-3.918,1.04-4.225c0-0.427-0.4-0.439-0.787-0.427v-0.36c0.534-0.039,1.786-0.159,2.692-0.372c-0.52,1.905-1.333,4.717-1.333,5.144
					c0,0.133,0.121,0.199,0.201,0.199c0.319,0,0.771-0.666,1.039-1.066l0.293,0.187z M225.759,17.585c0.507,0,0.92,0.413,0.92,0.906c0,0.479-0.399,0.88-0.92,0.88c-0.626,0-0.879-0.56-0.879-0.906c0-0.32,0.279-0.88,0.879-0.88z"/>
				<path style="&st1;" d="M243.436,25.102c-0.254,0.452-0.999,1.719-2.119,1.719c-0.2,0-0.893,0-0.893-0.746c0-0.574,0.16-1.027,0.293-1.427l-0.026-0.013c-1.014,1.413-1.572,2.186-2.586,2.186c-1.025,0-1.025-0.732-1.025-1.039c0-0.92,0.999-3.345,0.999-4.119
					c0-0.347-0.293-0.36-0.746-0.387v-0.36c1.186-0.053,2.599-0.359,2.785-0.372l-1.253,4.104c-0.16,0.507-0.199,0.654-0.199,0.894c0,0.252,0.133,0.318,0.307,0.318c0.532,0,1.345-1.265,1.519-1.584c0.6-1.08,0.906-2.133,1.319-3.559h1.573
					c-0.268,0.934-1.374,4.518-1.374,4.944c0,0.227,0.134,0.254,0.2,0.254c0.32,0,0.826-0.8,0.946-0.987l0.28,0.174z"/>
				<path style="&st1;" d="M254.745,20.917c1.412-0.119,1.745-0.146,2.665-0.359l-0.8,2.479l0.04,0.027c0.772-1.187,1.64-2.519,2.825-2.519c0.066,0,0.879,0,0.879,0.893c0,0.52-0.187,0.973-0.307,1.279l0.014,0.027c0.68-1.08,1.466-2.199,2.559-2.199
					c0.733,0,1.054,0.466,1.054,1.052c0,0.88-1.187,3.599-1.187,4.118c0,0.16,0.146,0.201,0.227,0.201c0.254,0,0.68-0.667,0.906-1.013l0.293,0.174c-0.413,0.707-1.026,1.746-2.092,1.746c-0.227,0-0.934,0-0.934-0.867c0-0.972,1.173-3.811,1.173-4.13
					c0-0.16-0.106-0.307-0.319-0.307c-0.561,0-1.266,1.159-1.479,1.546c-0.493,0.853-0.68,1.453-1.346,3.637h-1.6c1.026-3.318,1.466-4.49,1.466-4.864c0-0.253-0.159-0.319-0.253-0.319c-0.093,0-1.572,0.333-2.812,5.183h-1.612c0.759-2.785,1.359-4.636,1.359-5.077
					c0-0.386-0.521-0.359-0.72-0.347v-0.36z"/>
				<path d="M123.286,1.771h2.012l-4.572,15.43h-0.206l-2.858-9.555l-2.857,9.555h-0.183l-4.572-15.43h2.012l2.743,9.396l1.874-6.332l-0.914-3.063h2.012l2.743,9.396l2.766-9.396z"/>
				<path d="M189.955,1.453h2.012l-4.572,15.43h-0.206l-2.856-9.555l-2.857,9.555h-0.184l-4.572-15.43h2.013l2.743,9.396l1.874-6.333l-0.914-3.063h2.012l2.742,9.396l2.767-9.396z"/>
				<path d="M244.878,1.453h2.012l-4.572,15.43h-0.205l-2.858-9.555l-2.857,9.555h-0.183l-4.572-15.43h2.012l2.743,9.396l1.874-6.333l-0.914-3.063h2.012l2.744,9.396l2.766-9.396z"/>
				<path d="M248.27,3.238h6.096v2.024h-4.048v2.438h4.048v2.048h-4.048v3.658h4.048v2.024h-6.096V3.238z"/>
				<path d="M257.815,3.238h4.268c1.805,0,3.268,1.463,3.268,3.243c0,0.829-0.268,1.463-0.707,2.024c0.927,0.707,1.512,1.731,1.512,3.072c0,2.122-1.73,3.853-3.853,3.853c-0.22,0-4.487,0-4.487,0V3.238z M259.863,7.701h2.22c0.683,0,1.219-0.537,1.219-1.22
					c0-0.658-0.536-1.219-1.219-1.219c-0.171,0-2.22,0-2.22,0v2.438z M259.863,13.407h2.439c0.999,0,1.829-0.829,1.829-1.829c0-1.024-0.83-1.829-1.829-1.829c-0.391,0-2.439,0-2.439,0v3.658z"/>
				<path d="M130.116,3.042c2.756,0,4.268,2.829,4.268,6.292s-1.512,6.291-4.268,6.291c-2.731,0-4.268-2.828-4.268-6.291s1.537-6.292,4.268-6.292z M130.116,13.602c1.17,0,2.122-1.926,2.122-4.267c0-2.341-0.951-4.268-2.122-4.268c-1.146,0-2.122,1.926-2.122,4.268
					c0,2.341,0.976,4.267,2.122,4.267z"/>
				<path d="M146.575,15.431h-2.487l-2.927-4.072c-0.487,0-1.487,0-1.487,0v4.072h-2.049V3.238h3.878c2.219,0,4.048,1.829,4.048,4.072c0,1.561-0.878,2.927-2.194,3.609l3.219,4.511z M143.526,7.31c0-1.122-0.902-2.048-2.023-2.048c-0.22,0-1.829,0-1.829,0v4.072
					h1.829c1.121,0,2.023-0.927,2.023-2.024z"/>
				<path d="M151.256,13.407h4.048v2.024h-6.096V3.238h2.048v10.169z"/>
				<path d="M156.724,3.238h2.853c3.024,0,5.487,2.731,5.487,6.097c0,3.365-2.463,6.096-5.487,6.096c-0.269,0-2.853,0-2.853,0V3.238z M158.771,13.407h0.805c1.78,0,3.243-1.829,3.243-4.072c0-2.244-1.463-4.072-3.243-4.072c-0.316,0-0.805,0-0.805,0v8.145z"/>
				<path d="M200.331,3.238h2.854c3.023,0,5.487,2.731,5.487,6.097c0,3.365-2.464,6.096-5.487,6.096c-0.269,0-2.854,0-2.854,0V3.238z M202.38,13.407h0.805c1.78,0,3.243-1.829,3.243-4.072c0-2.244-1.463-4.072-3.243-4.072c-0.316,0-0.805,0-0.805,0v8.145z"/>
				<path d="M211.913,3.238h6.097v2.024h-4.048v2.438h4.048v2.048h-4.048v3.658h4.048v2.024h-6.097V3.238z"/>
				<g>
					<path d="M194.518,3.188h1.786v12.203h-1.786V3.188z"/>
					<path d="M195.411,9.29"/>
				</g>
				<path style="&st0;" d="M274.845,25.169c-0.659,0-1.251,0.238-1.699,0.693c-0.477,0.482-0.741,1.109-0.741,1.754c0,0.646,0.252,1.244,0.714,1.713c0.469,0.477,1.074,0.734,1.727,0.734c0.639,0,1.258-0.258,1.74-0.729c0.463-0.447,0.714-1.045,0.714-1.719
					c0-0.652-0.259-1.264-0.707-1.719c-0.47-0.477-1.081-0.728-1.747-0.728z M276.973,27.638c0,0.564-0.218,1.086-0.619,1.475c-0.421,0.408-0.944,0.625-1.522,0.625c-0.544,0-1.081-0.225-1.481-0.633c-0.401-0.408-0.626-0.932-0.626-1.488s0.231-1.102,0.646-1.521
					c0.389-0.395,0.911-0.606,1.482-0.606c0.585,0,1.107,0.217,1.517,0.633c0.394,0.393,0.604,0.924,0.604,1.516z M274.913,26.183h-1.047v2.773h0.522v-1.184h0.518l0.563,1.184h0.585l-0.618-1.264c0.4-0.082,0.632-0.355,0.632-0.75c0-0.502-0.381-0.76-1.155-0.76z
					 M274.817,26.522c0.49,0,0.713,0.135,0.713,0.475c0,0.326-0.223,0.443-0.699,0.443h-0.442v-0.918h0.429z"/>
			</g>
			<g>
				<g>
					<path d="M93.451,0l1.056,6.42l-3.738,7.152c0,0-1.436-3.034-3.82-4.714c-2.009-1.416-3.318-1.723-5.364-1.301c-2.628,0.542-5.608,3.685-6.908,7.559c-1.556,4.636-1.571,6.879-1.625,8.94c-0.087,3.304,0.434,5.256,0.434,5.256s-2.27-4.199-2.249-10.349
						c0.015-4.389,0.704-8.371,2.736-12.299c1.787-3.454,4.443-5.526,6.8-5.77c2.437-0.252,4.363,0.923,5.852,2.194c1.562,1.334,3.143,4.253,3.143,4.253L93.451,0z"/>
					<path d="M93.911,36.329c0,0-1.653,2.953-2.682,4.091c-1.03,1.138-2.872,3.143-5.147,4.146c-2.275,1.001-3.468,1.191-5.716,0.975c-2.246-0.216-4.334-1.517-5.066-2.06c-0.731-0.541-2.601-2.14-3.657-3.629c-1.057-1.49-2.709-4.471-2.709-4.471
						s0.921,2.986,1.497,4.254c0.332,0.729,1.351,2.96,2.797,4.902c1.349,1.813,3.969,4.932,7.951,5.635c3.982,0.705,6.719-1.083,7.396-1.517c0.677-0.433,2.104-1.628,3.007-2.594c0.943-1.009,1.835-2.296,2.33-3.067c0.361-0.564,0.948-1.707,0.948-1.707
						l-0.948-4.958z"/>
				</g>
				<g>
					<path style="&st4;" d="M25.146,0.284l9.003,30.611l9.003-30.611h6.519L34.771,50.576h-0.621l-9.313-31.168l-9.314,31.168h-0.621L0,0.284h6.519l9.003,30.611l6.085-20.614l-2.98-9.997h6.52z"/>
					<path style="&st4;" d="M68.184,34.434c0,4.554-1.211,8.383-3.632,11.487c-2.422,3.104-5.558,4.655-9.407,4.655c-2.898,0-5.423-0.921-7.576-2.763c-2.152-1.842-3.746-4.335-4.781-7.481l5.091-2.11c0.746,1.904,1.729,3.405,2.95,4.501
						c1.221,1.097,2.659,1.645,4.315,1.645c1.738,0,3.208-0.972,4.409-2.917s1.801-4.284,1.801-7.017c0-3.022-0.642-5.36-1.925-7.017c-1.491-1.945-3.83-2.918-7.017-2.918h-2.483v-2.98l8.693-15.026H48.128l-2.918,4.967h-1.862V0.284h24.215v3.042l-9.19,15.833
						c3.229,1.036,5.671,2.919,7.326,5.652c1.655,2.731,2.484,5.938,2.484,9.623z"/>
				</g>
			</g>
			<g style="&st0;">
				<path d="M182.097,36.103h-1.399v5.541c0,1.875-0.588,3.163-2.394,3.163c-1.805,0-2.393-1.288-2.393-3.163v-5.541h-1.398v5.724c0,2.742,1.385,4.212,3.791,4.212c2.407,0,3.793-1.47,3.793-4.212v-5.724z"/>
				<path d="M185.333,45.87h1.315v-6.072h1.889v-1.064h-1.889v-0.77c0-0.965,0.14-1.693,1.272-1.693c0.225,0,0.477,0.029,0.631,0.084l0.056-1.063c-0.267-0.043-0.546-0.084-0.882-0.084c-1.945,0-2.393,1.133-2.393,2.868v0.657h-1.68v1.064h1.68v6.072z"/>
				<path d="M190.525,45.87h1.315v-6.072h1.889v-1.064h-1.889v-0.77c0-0.965,0.14-1.693,1.273-1.693c0.224,0,0.476,0.029,0.629,0.084l0.057-1.063c-0.266-0.043-0.546-0.084-0.882-0.084c-1.944,0-2.393,1.133-2.393,2.868v0.657h-1.679v1.064h1.679v6.072z"/>
				<path d="M195.284,45.87h1.314v-7.137h-1.314v7.137z M196.683,35.655H195.2v1.483h1.482v-1.483z"/>
				<path d="M203.651,38.846c-0.377-0.153-1.063-0.28-1.596-0.28c-2.182,0-3.637,1.568-3.637,3.736c0,2.043,1.482,3.736,3.637,3.736c0.477,0,1.105-0.043,1.652-0.294l-0.098-1.176c-0.406,0.267-0.967,0.405-1.414,0.405c-1.693,0-2.379-1.398-2.379-2.672
					c0-1.357,0.826-2.672,2.295-2.672c0.42,0,0.924,0.098,1.428,0.307l0.111-1.091z"/>
				<path d="M205.389,45.87h1.315v-7.137h-1.315v7.137z M206.788,35.655h-1.483v1.483h1.483v-1.483z"/>
				<path d="M208.636,42.302c0,2.043,1.482,3.736,3.637,3.736c2.141,0,3.625-1.693,3.625-3.736c0-2.168-1.455-3.736-3.625-3.736c-2.182,0-3.637,1.568-3.637,3.736z M210.034,42.302c0-1.357,0.826-2.672,2.238-2.672c1.4,0,2.225,1.314,2.225,2.672
					c0,1.273-0.686,2.672-2.225,2.672c-1.553,0-2.238-1.398-2.238-2.672z"/>
				<path d="M221.679,45.87h1.4v-9.768h-1.4v9.768z"/>
				<path d="M229.235,38.733h-1.889v-2.07l-1.315,0.42v1.65h-1.609v1.064h1.609v4.169c0,1.427,0.839,2.071,2.196,2.071c0.42,0,0.826-0.112,1.119-0.196v-1.119c-0.195,0.126-0.489,0.251-0.895,0.251c-0.602,0-1.105-0.447-1.105-1.272v-3.903h1.889v-1.064z"/>
				<path d="M231.294,40.356c0.531-0.447,1.328-0.727,2.07-0.727c1.315,0,1.764,0.629,1.764,1.86c-0.518-0.028-0.883-0.028-1.4-0.028c-1.357,0-3.316,0.561-3.316,2.352c0,1.553,1.078,2.225,2.617,2.225c1.203,0,1.902-0.658,2.211-1.092h0.027v0.924h1.232
					c-0.028-0.21-0.057-0.588-0.057-1.399v-2.952c0-1.945-0.825-2.953-2.868-2.953c-0.909,0-1.692,0.28-2.351,0.672l0.07,1.119z M235.128,43.099c0,1.064-0.686,1.875-1.988,1.875c-0.602,0-1.328-0.405-1.328-1.16c0-1.26,1.763-1.371,2.477-1.371
					c0.279,0,0.56,0.027,0.84,0.027v0.629z"/>
				<path d="M238.838,45.87h1.315V35.376h-1.315V45.87z"/>
				<path d="M242.728,45.87h1.316v-7.137h-1.316v7.137z M244.128,35.655h-1.484v1.483h1.484v-1.483z"/>
				<path d="M246.856,40.356c0.531-0.447,1.328-0.727,2.07-0.727c1.315,0,1.764,0.629,1.764,1.86c-0.518-0.028-0.882-0.028-1.4-0.028c-1.356,0-3.315,0.561-3.315,2.352c0,1.553,1.077,2.225,2.616,2.225c1.203,0,1.903-0.658,2.211-1.092h0.028v0.924h1.231
					c-0.028-0.21-0.057-0.588-0.057-1.399v-2.952c0-1.945-0.825-2.953-2.868-2.953c-0.909,0-1.692,0.28-2.351,0.672l0.07,1.119z M250.69,43.099c0,1.064-0.686,1.875-1.987,1.875c-0.602,0-1.329-0.405-1.329-1.16c0-1.26,1.763-1.371,2.477-1.371
					c0.279,0,0.56,0.027,0.84,0.027v0.629z"/>
				<path d="M254.233,45.87h1.314v-3.303c0-1.734,0.672-2.938,2.169-2.938c1.147,0.069,1.511,0.881,1.511,2.546v3.694h1.316v-4.24c0-1.916-0.826-3.064-2.674-3.064c-0.992,0-1.944,0.49-2.336,1.302h-0.027v-1.134h-1.273v7.137z"/>
				<path d="M262.31,42.302c0,2.043,1.483,3.736,3.639,3.736c2.141,0,3.623-1.693,3.623-3.736c0-2.168-1.455-3.736-3.623-3.736c-2.184,0-3.639,1.568-3.639,3.736z M263.709,42.302c0-1.357,0.825-2.672,2.239-2.672c1.398,0,2.225,1.314,2.225,2.672
					c0,1.273-0.686,2.672-2.225,2.672c-1.554,0-2.239-1.398-2.239-2.672z"/>
			</g>
		</g>
	</g>
</svg>
